<?xml version="1.0" encoding="UTF-8"?>
<svg width="64" height="64" viewBox="0 0 64 64" fill="none" xmlns="http://www.w3.org/2000/svg">
  <!-- Background -->
  <rect x="8" y="4" width="40" height="56" rx="4" fill="#217346"/>
  
  <!-- Paper effect -->
  <rect x="12" y="8" width="32" height="48" rx="2" fill="#ffffff"/>
  
  <!-- Excel grid lines -->
  <line x1="16" y1="16" x2="40" y2="16" stroke="#e0e0e0" stroke-width="0.5"/>
  <line x1="16" y1="20" x2="40" y2="20" stroke="#e0e0e0" stroke-width="0.5"/>
  <line x1="16" y1="24" x2="40" y2="24" stroke="#e0e0e0" stroke-width="0.5"/>
  <line x1="16" y1="28" x2="40" y2="28" stroke="#e0e0e0" stroke-width="0.5"/>
  <line x1="16" y1="32" x2="40" y2="32" stroke="#e0e0e0" stroke-width="0.5"/>
  <line x1="16" y1="36" x2="40" y2="36" stroke="#e0e0e0" stroke-width="0.5"/>
  <line x1="16" y1="40" x2="40" y2="40" stroke="#e0e0e0" stroke-width="0.5"/>
  <line x1="16" y1="44" x2="40" y2="44" stroke="#e0e0e0" stroke-width="0.5"/>
  <line x1="16" y1="48" x2="40" y2="48" stroke="#e0e0e0" stroke-width="0.5"/>
  
  <line x1="20" y1="12" x2="20" y2="52" stroke="#e0e0e0" stroke-width="0.5"/>
  <line x1="24" y1="12" x2="24" y2="52" stroke="#e0e0e0" stroke-width="0.5"/>
  <line x1="28" y1="12" x2="28" y2="52" stroke="#e0e0e0" stroke-width="0.5"/>
  <line x1="32" y1="12" x2="32" y2="52" stroke="#e0e0e0" stroke-width="0.5"/>
  <line x1="36" y1="12" x2="36" y2="52" stroke="#e0e0e0" stroke-width="0.5"/>
  
  <!-- Header row -->
  <rect x="16" y="12" width="24" height="4" fill="#217346" opacity="0.1"/>
  
  <!-- Data cells with some content -->
  <rect x="16" y="20" width="4" height="4" fill="#217346" opacity="0.3"/>
  <rect x="24" y="24" width="4" height="4" fill="#217346" opacity="0.3"/>
  <rect x="32" y="28" width="4" height="4" fill="#217346" opacity="0.3"/>
  <rect x="20" y="32" width="4" height="4" fill="#217346" opacity="0.3"/>
  <rect x="28" y="36" width="4" height="4" fill="#217346" opacity="0.3"/>
  
  <!-- Corner fold -->
  <path d="M44 4 L48 8 L44 8 Z" fill="#1a5c3a"/>
  
  <!-- File extension label -->
  <rect x="48" y="48" width="12" height="12" rx="2" fill="#217346"/>
  <text x="54" y="56" text-anchor="middle" fill="white" font-family="Arial, sans-serif" font-size="6" font-weight="bold">XLS</text>
</svg>
